# xmcd CD database file
#
# Track frame offsets:
#	150
#	15494
#	32005
#
# Disc length: 629 seconds
#
# Revision: 0
# Processed by: cddbd v1.5.2PL0 Copyright (c) Steve Scherf et al.
# Submitted via: CDex 1.78
#
DISCID=16027303
DTITLE=Fred Weston - You Tell Me
DYEAR=2015
DGENRE=Country
TTITLE0=You Tell Me
TTITLE1=Kiss Me Again
TTITLE2=You Tell Me (Line Dance)
EXTD=YEAR: 2015
EXTT0=
EXTT1=
EXTT2=
PLAYORDER=
